<svg width="96" height="18" viewBox="0 0 96 18" fill="none" xmlns="http://www.w3.org/2000/svg">
<path d="M14.7345 17.7787H11.3516C11.1261 17.7787 10.9005 17.5574 10.9005 17.3361L9.99843 13.5H5.11198L4.20987 17.3361C4.13469 17.5574 3.98434 17.7787 3.75881 17.7787H0.375881C0.150352 17.7787 0 17.6311 0 17.4098C0 17.4098 0 17.3361 0 17.2623L3.60846 2.65574C4.13469 0.368852 5.93892 0 7.59279 0C9.24667 0 10.9757 0.368852 11.5771 2.65574L15.1856 17.2623C15.1856 17.3361 15.1856 17.3361 15.1856 17.4098C15.1856 17.6311 15.0352 17.7787 14.7345 17.7787ZM7.8935 3.68852C7.81832 3.46721 7.81832 3.31967 7.59279 3.31967C7.36727 3.31967 7.29209 3.46721 7.29209 3.68852L5.78857 10.1803H9.39702L7.8935 3.68852Z" fill="white"/>
<path d="M29.2435 3.68852C29.1683 3.68852 29.1683 3.68852 29.2435 3.68852C28.0407 3.61475 26.2364 3.46721 24.1315 3.46721C22.1769 3.46721 20.9741 4.35246 20.9741 7.45082V10.4016C20.9741 13.6475 22.4776 14.3852 23.6804 14.3852C24.357 14.3852 24.9584 14.3852 25.5599 14.3115V8.85246C25.5599 8.55738 25.7854 8.40983 26.0109 8.40983H29.0931C29.3938 8.40983 29.5442 8.63115 29.5442 8.85246V16.8197C29.5442 17.1148 29.3938 17.2623 29.0931 17.3361C27.8151 17.6311 26.0861 17.8525 23.6804 17.8525C20.9741 17.8525 16.8394 16.3033 16.8394 10.3279V7.37705C16.8394 1.47541 20.6734 0 24.1315 0C26.5371 0 28.2662 0.368852 29.1683 0.516393C29.3938 0.590164 29.5442 0.663934 29.5442 0.885246V3.39344C29.6194 3.68852 29.469 3.68852 29.2435 3.68852Z" fill="white"/>
<path d="M46.3085 17.7787H42.6249C42.3242 17.7787 42.249 17.5574 42.1738 17.3361L38.9412 11.3607H38.6405C38.1143 11.3607 37.3625 11.2869 36.9115 11.2869V17.2623C36.9115 17.5574 36.6859 17.7049 36.4604 17.7049H33.303C33.0023 17.7049 32.852 17.4836 32.852 17.2623V1.47541C32.852 0.663934 33.1527 0.442623 33.9044 0.368852C35.0321 0.147541 37.0618 0 38.7909 0C42.8504 0 46.0078 1.32787 46.0078 5.53279V5.82787C46.0078 8.33607 44.6546 9.88525 42.9256 10.5492L46.534 17.1885C46.6092 17.2623 46.6092 17.4098 46.6092 17.4836C46.6092 17.6311 46.534 17.7787 46.3085 17.7787ZM41.9483 5.53279C41.9483 4.05738 40.8206 3.46721 38.7909 3.46721C38.4902 3.46721 37.2122 3.54098 36.9115 3.54098V8.04098C37.2122 8.04098 38.3398 8.11475 38.6405 8.11475C41.1965 8.11475 41.9483 7.45082 41.9483 5.90164V5.53279Z" fill="white"/>
<path d="M55.931 18C51.9466 18 48.7892 15.9344 48.7892 10.4016V7.59836C48.7892 2.06557 51.9466 0 55.931 0C59.9153 0 63.0727 2.06557 63.0727 7.59836V10.4016C62.9975 15.8607 59.8401 18 55.931 18ZM58.8628 7.59836C58.8628 4.79508 57.8855 3.54098 55.8558 3.54098C53.826 3.54098 52.9239 4.72131 52.9239 7.59836V10.4016C52.9239 13.2049 53.826 14.459 55.8558 14.459C57.8855 14.459 58.8628 13.2787 58.8628 10.4016V7.59836Z" fill="white"/>
<path d="M72.6954 18C68.711 18 65.5536 15.9344 65.5536 10.4016V7.59836C65.5536 2.06557 68.711 0 72.6954 0C76.6797 0 79.8371 2.06557 79.8371 7.59836V10.4016C79.8371 15.8607 76.6797 18 72.6954 18ZM75.7024 7.59836C75.7024 4.79508 74.7251 3.54098 72.6954 3.54098C70.6656 3.54098 69.7635 4.72131 69.7635 7.59836V10.4016C69.7635 13.2049 70.6656 14.459 72.6954 14.459C74.7251 14.459 75.7024 13.2787 75.7024 10.4016V7.59836Z" fill="white"/>
<path d="M88.7831 11.582C88.1817 11.582 87.4299 11.5082 86.8285 11.5082V17.2623C86.8285 17.5574 86.603 17.7049 86.3775 17.7049H83.2952C82.9945 17.7049 82.8442 17.4836 82.8442 17.2623V1.47544C82.8442 0.663967 83.1449 0.442655 83.8966 0.368885C85.0995 0.147573 87.054 0.0738029 88.7831 0.0738029C92.3916 0.0738029 96 1.3279 96 5.75413V5.90167C95.9248 10.3279 92.3916 11.582 88.7831 11.582ZM91.8653 5.68036C91.8653 3.98364 90.8129 3.3197 88.7831 3.3197C88.4824 3.3197 87.1292 3.39347 86.8285 3.39347V8.18856C87.1292 8.18856 88.4824 8.26233 88.7831 8.26233C90.888 8.26233 91.8653 7.45085 91.8653 5.90167V5.68036Z" fill="white"/>
</svg>
