<svg width="20" height="20" viewBox="0 0 20 20" fill="none" xmlns="http://www.w3.org/2000/svg">
<path d="M16 10C16 6.7 13.3 4 10 4C6.7 4 4 6.7 4 10C4 11.65 4.65 13.15 5.75 14.2L7.2 12.8C6.5 12.1 6.05 11.1 6.05 10C6.05 7.8 7.85 6 10.05 6C12.25 6 14.05 7.8 14.05 10C14.05 11.1 13.6 12.1 12.85 12.8L14.25 14.25C15.3 13.15 16 11.65 16 10ZM10 0C4.5 0 0 4.5 0 10C0 12.75 1.09999 15.2 2.89999 17L4.3 15.6C2.85 14.15 2 12.15 2 10C2 5.6 5.6 2 10 2C14.4 2 18 5.6 18 10C18 12.2 17.1 14.2 15.65 15.65L17.05 17.05C18.85 15.25 20 12.75 20 9.94995C20 4.49995 15.5 0 10 0ZM11 20V11.75C11.6 11.4 12 10.75 12 10C12 8.9 11.1 8 10 8C8.9 8 8 8.9 8 10C8 10.75 8.4 11.35 9 11.75V20H11Z" fill="#989898"/>
</svg>
